jump_forces.mot																		
version=1																		
nRows=51																		
nColumns=19																		
inDegrees=yes																		
endheader																		
time	ground_force_vx	ground_force_vy	ground_force_vz	ground_force_px	ground_force_py	ground_force_pz	1_ground_force_vx	1_ground_force_vy	1_ground_force_vz	1_ground_force_px	1_ground_force_py	1_ground_force_pz	ground_torque_x	ground_torque_y	ground_torque_z	1_ground_torque_x	1_ground_torque_y	1_ground_torque_z
0.766	5.703883	82.956673	-19.474016	0.458942	0	-0.317102	-4.734484	33.798596	-26.163681	0.728254	0	-0.300832	0	-0.379115	0	0	-0.065528	0
0.76625	5.725067	82.820335	-19.288627	0.458964	0	-0.3173	-4.716838	33.719825	-26.128775	0.728178	0	-0.300767	0	-0.381012	0	0	-0.065323	0
0.7665	5.746861	82.686076	-19.103365	0.458986	0	-0.317496	-4.700111	33.644289	-26.094592	0.728102	0	-0.300708	0	-0.382826	0	0	-0.065184	0
0.76675	5.769242	82.553993	-18.91832	0.459006	0	-0.317691	-4.684295	33.571941	-26.061151	0.728026	0	-0.300655	0	-0.384564	0	0	-0.065107	0
0.767	5.79219	82.424184	-18.733584	0.459026	0	-0.317884	-4.669383	33.50273	-26.028472	0.727952	0	-0.300607	0	-0.386229	0	0	-0.065087	0
0.76725	5.815685	82.296739	-18.549249	0.459045	0	-0.318075	-4.655367	33.436605	-25.996573	0.727878	0	-0.300564	0	-0.387826	0	0	-0.065118	0
0.7675	5.839706	82.171749	-18.365403	0.459063	0	-0.318265	-4.642241	33.373512	-25.965473	0.727805	0	-0.300526	0	-0.38936	0	0	-0.065196	0
0.76775	5.864232	82.049301	-18.182137	0.45908	0	-0.318452	-4.629997	33.313395	-25.93519	0.727733	0	-0.300493	0	-0.390838	0	0	-0.065317	0
0.768	5.889244	81.92948	-17.999538	0.459096	0	-0.318638	-4.618627	33.256199	-25.905742	0.727661	0	-0.300466	0	-0.392263	0	0	-0.065478	0
0.76825	5.914721	81.812368	-17.817693	0.459112	0	-0.318822	-4.608124	33.201865	-25.877148	0.727591	0	-0.300443	0	-0.393641	0	0	-0.065674	0
0.7685	5.940645	81.698048	-17.636686	0.459127	0	-0.319003	-4.598481	33.150333	-25.849425	0.727521	0	-0.300425	0	-0.394977	0	0	-0.065904	0
0.76875	5.966997	81.586598	-17.456602	0.459142	0	-0.319183	-4.589693	33.101544	-25.822592	0.727453	0	-0.300411	0	-0.396277	0	0	-0.066163	0
0.769	5.993759	81.478097	-17.277522	0.459157	0	-0.31936	-4.581751	33.055437	-25.796669	0.727386	0	-0.300401	0	-0.397544	0	0	-0.06645	0
0.76925	6.020914	81.372622	-17.099528	0.459171	0	-0.319536	-4.574652	33.011953	-25.771676	0.727319	0	-0.300396	0	-0.398785	0	0	-0.066762	0
0.7695	6.048447	81.270251	-16.922696	0.459185	0	-0.31971	-4.568389	32.97103	-25.747632	0.727255	0	-0.300395	0	-0.400004	0	0	-0.067098	0
0.76975	6.076341	81.17106	-16.747104	0.459199	0	-0.319881	-4.562958	32.932609	-25.724558	0.727192	0	-0.300397	0	-0.401205	0	0	-0.067455	0
0.77	6.104584	81.075126	-16.572826	0.459213	0	-0.320051	-4.558356	32.896629	-25.702478	0.72713	0	-0.300403	0	-0.402393	0	0	-0.067832	0
0.77025	6.133162	80.982525	-16.399934	0.459226	0	-0.320218	-4.554579	32.863033	-25.681411	0.727071	0	-0.300412	0	-0.403572	0	0	-0.068228	0
0.7705	6.162065	80.893335	-16.228498	0.45924	0	-0.320384	-4.551624	32.831763	-25.661383	0.727013	0	-0.300424	0	-0.404746	0	0	-0.068642	0
0.77075	6.191283	80.807634	-16.058585	0.459254	0	-0.320548	-4.549491	32.802763	-25.642417	0.726957	0	-0.300438	0	-0.405918	0	0	-0.069072	0
0.771	6.220807	80.7255	-15.89026	0.459268	0	-0.320709	-4.548177	32.775977	-25.624537	0.726904	0	-0.300456	0	-0.407093	0	0	-0.069517	0
0.77125	6.250631	80.647012	-15.723587	0.459282	0	-0.320869	-4.547683	32.751354	-25.607768	0.726853	0	-0.300476	0	-0.408272	0	0	-0.069976	0
0.7715	6.28075	80.572253	-15.558625	0.459296	0	-0.321027	-4.54801	32.728842	-25.592137	0.726805	0	-0.300498	0	-0.409459	0	0	-0.070449	0
0.77175	6.311161	80.501302	-15.395433	0.45931	0	-0.321184	-4.549157	32.708393	-25.577669	0.726759	0	-0.300522	0	-0.410656	0	0	-0.070932	0
0.772	6.341861	80.434243	-15.234066	0.459325	0	-0.321338	-4.551127	32.689959	-25.56439	0.726716	0	-0.300548	0	-0.411865	0	0	-0.071426	0
0.77225	6.372852	80.371159	-15.074576	0.459339	0	-0.321491	-4.553923	32.673496	-25.552329	0.726676	0	-0.300576	0	-0.413088	0	0	-0.071929	0
0.7725	6.404134	80.312134	-14.917014	0.459354	0	-0.321642	-4.557545	32.658963	-25.54151	0.726639	0	-0.300605	0	-0.414326	0	0	-0.072438	0
0.77275	6.43571	80.257255	-14.761428	0.459369	0	-0.321792	-4.561999	32.646321	-25.531962	0.726605	0	-0.300636	0	-0.415581	0	0	-0.072953	0
0.773	6.467586	80.206606	-14.607864	0.459385	0	-0.32194	-4.567285	32.635531	-25.523712	0.726575	0	-0.300669	0	-0.416853	0	0	-0.07347	0
0.77325	6.499768	80.160275	-14.456364	0.459401	0	-0.322086	-4.573409	32.626561	-25.516785	0.726548	0	-0.300703	0	-0.418142	0	0	-0.073987	0
0.7735	6.532263	80.118348	-14.306969	0.459416	0	-0.322231	-4.580373	32.619379	-25.511207	0.726524	0	-0.300738	0	-0.419449	0	0	-0.074501	0
0.77375	6.56508	80.080914	-14.159719	0.459432	0	-0.322375	-4.588181	32.613956	-25.507004	0.726503	0	-0.300774	0	-0.420773	0	0	-0.07501	0
0.774	6.598228	80.048058	-14.014648	0.459449	0	-0.322518	-4.596835	32.610265	-25.504202	0.726486	0	-0.300812	0	-0.422114	0	0	-0.07551	0
0.77425	6.631719	80.019868	-13.871792	0.459465	0	-0.322659	-4.606338	32.608284	-25.502822	0.726473	0	-0.30085	0	-0.423471	0	0	-0.075996	0
0.7745	6.665563	79.996431	-13.731181	0.459482	0	-0.322799	-4.616694	32.607991	-25.502888	0.726462	0	-0.30089	0	-0.424842	0	0	-0.076466	0
0.77475	6.699773	79.977832	-13.592846	0.459498	0	-0.322939	-4.627902	32.609368	-25.50442	0.726455	0	-0.300932	0	-0.426227	0	0	-0.076914	0
0.775	6.734361	79.964158	-13.456813	0.459515	0	-0.323077	-4.639965	32.612399	-25.507439	0.726452	0	-0.300974	0	-0.427623	0	0	-0.077336	0
0.77525	6.76934	79.955491	-13.323109	0.459531	0	-0.323214	-4.652883	32.617071	-25.511962	0.726451	0	-0.301019	0	-0.429029	0	0	-0.077727	0
0.7755	6.804721	79.951915	-13.191756	0.459548	0	-0.32335	-4.666656	32.623372	-25.518005	0.726453	0	-0.301064	0	-0.430443	0	0	-0.078081	0
0.77575	6.840519	79.953513	-13.062776	0.459564	0	-0.323486	-4.681281	32.631294	-25.525582	0.726458	0	-0.301111	0	-0.431862	0	0	-0.078394	0
0.776	6.876744	79.960364	-12.936188	0.45958	0	-0.323621	-4.696755	32.64083	-25.534704	0.726466	0	-0.30116	0	-0.433284	0	0	-0.078659	0
0.77625	6.913408	79.972549	-12.812009	0.459597	0	-0.323755	-4.713077	32.651975	-25.545381	0.726476	0	-0.301211	0	-0.434706	0	0	-0.07887	0
0.7765	6.950523	79.990144	-12.690253	0.459613	0	-0.323889	-4.730239	32.664725	-25.557618	0.726488	0	-0.301263	0	-0.436125	0	0	-0.079022	0
0.77675	6.988098	80.013226	-12.570932	0.459628	0	-0.324022	-4.748235	32.679079	-25.57142	0.726502	0	-0.301318	0	-0.43754	0	0	-0.079109	0
0.777	7.026143	80.04187	-12.454057	0.459643	0	-0.324154	-4.767058	32.695036	-25.586787	0.726518	0	-0.301375	0	-0.438946	0	0	-0.079124	0
0.77725	7.064666	80.07615	-12.339636	0.459658	0	-0.324286	-4.786699	32.712596	-25.603717	0.726535	0	-0.301434	0	-0.44034	0	0	-0.079061	0
0.7775	7.103673	80.116137	-12.227674	0.459673	0	-0.324418	-4.807146	32.731761	-25.622204	0.726554	0	-0.301495	0	-0.44172	0	0	-0.078915	0
0.77775	7.143172	80.161902	-12.118174	0.459687	0	-0.324549	-4.828387	32.752532	-25.642241	0.726573	0	-0.301559	0	-0.443083	0	0	-0.078679	0
0.778	7.183166	80.213515	-12.011136	0.459701	0	-0.32468	-4.850409	32.774911	-25.663814	0.726593	0	-0.301626	0	-0.444424	0	0	-0.078347	0
0.77825	7.223659	80.271045	-11.906558	0.459714	0	-0.32481	-4.873196	32.798901	-25.686909	0.726613	0	-0.301696	0	-0.445741	0	0	-0.077914	0
0.7785	7.264653	80.334558	-11.804434	0.459726	0	-0.32494	-4.896731	32.824502	-25.711507	0.726632	0	-0.301769	0	-0.44703	0	0	-0.077374	0
